<svg width="102" height="54" viewBox="0 0 102 54" fill="none" xmlns="http://www.w3.org/2000/svg">
<path d="M100.542 1.9082C90.7105 8.57941 79.9228 12.379 69.2716 17.5778C57.8333 23.1608 46.4863 28.9359 35.1021 34.628C29.0279 37.6652 22.1395 40.287 16.8784 44.7063C15.5462 45.8253 10.9726 49.8144 9.14715 49.8144C7.69827 49.8144 10.1191 47.0835 10.6658 45.7417C12.2867 41.7632 14.6464 37.8712 17.2926 34.49C20.7323 30.0948 20.8803 30.1431 17.1545 34.2829C13.113 38.7734 2.3049 44.8903 1.20879 50.9189C0.57039 54.4301 5.01631 52.1244 6.38598 51.3331C13.41 47.2748 17.9411 43.6207 25.9903 46.6391" stroke="#7553F0" stroke-width="2" stroke-linecap="round"/>
</svg>
