<svg width="265" height="34" viewBox="0 0 265 34" fill="none" xmlns="http://www.w3.org/2000/svg">
<g clip-path="url(#clip0_333_859)">
<path d="M43.4009 7.52179C43.6036 7.61192 43.6128 7.89851 43.4159 8.00136L26.7905 16.7331C26.4185 16.9145 25.9602 16.9145 25.5905 16.7331L8.96512 8.00251C8.7682 7.89851 8.77742 7.61308 8.98125 7.52294L25.723 0.0936034C26.035 -0.0312011 26.4012 -0.0312011 26.711 0.0936034L43.4009 7.52294V7.52179Z" fill="#7553F0"/>
<path d="M6.47859 9.60886C6.11124 9.42165 5.80607 9.15124 5.58151 8.82652C5.44332 8.62544 5.1347 8.66127 5.03451 8.88314L0.101126 19.8209C-0.141859 20.4461 0.0481527 21.1787 0.724132 21.5323L24.3074 33.9642C24.5193 34.0763 24.7738 33.9215 24.7738 33.6811V19.3921C24.7738 19.2639 24.6978 19.1472 24.5792 19.0986L6.47859 9.60886Z" fill="#7553F0"/>
<path d="M27.8244 19.0683C27.7058 19.1168 27.6286 19.2335 27.6286 19.3618L27.6079 33.6508C27.6079 33.8912 27.8624 34.046 28.0743 33.9351L51.676 21.539C52.3531 21.1865 52.5431 20.455 52.3013 19.8287L47.384 8.88517C47.2839 8.66214 46.9764 8.62632 46.837 8.82739C46.6125 9.15211 46.3073 9.42137 45.9388 9.60857L27.8244 19.0706V19.0683Z" fill="#7553F0"/>
<path d="M73.0898 6.30682C81.2511 6.30682 85.3461 9.41769 85.8724 15.3471H80.5198C80.0224 12.0305 77.4774 10.7385 73.0898 10.7385C67.7373 10.7385 65.4848 12.6464 65.4848 16.8436C65.4848 21.0407 67.7661 23.0075 73.0898 23.0075C77.4486 23.0075 80.0224 21.6867 80.5198 18.3401H85.8724C85.3461 24.2983 81.2511 27.4392 73.0898 27.4392C64.081 27.4392 60.2197 23.6824 60.2197 16.8436C60.2197 10.0047 64.081 6.30566 73.0898 6.30566V6.30682Z" fill="black"/>
<path d="M101.638 27.4406C92.6288 27.4406 88.7676 24.0062 88.7676 16.845V6.60059H94.0326V16.845C94.0326 19.7212 94.8226 23.0089 101.638 23.0089C108.453 23.0089 109.243 19.6924 109.243 16.845V6.60059H114.508V16.845C114.508 23.9773 110.618 27.4406 101.638 27.4406Z" fill="black"/>
<path d="M142.939 21.1588C142.939 24.6221 140.921 27.1471 136.27 27.1471H117.55V6.60059H135.568C140.219 6.60059 141.652 8.97765 141.652 12.0019C141.652 13.4406 141.067 14.8492 140.043 15.9933C141.798 17.0795 142.939 18.7817 142.939 21.1588ZM122.815 14.6724H133.697C135.1 14.6724 136.388 14.6724 136.388 12.53C136.388 10.3875 135.1 10.4164 133.668 10.4164H122.816V14.6724H122.815ZM137.674 20.8953C137.674 18.7228 136.387 18.7228 134.983 18.7228H122.815V23.0667H134.983C136.387 23.0667 137.674 23.0667 137.674 20.8942V20.8953Z" fill="black"/>
<path d="M150.778 10.7977V14.966H167.158V18.7817H150.778V22.95H167.158V27.1471H145.513V6.60059H167.158V10.7977H150.778Z" fill="black"/>
<path d="M189.388 21.0421L193.162 27.1471H186.961L183.656 21.658H175.173V27.1471H169.908V6.60059H185.996C190.647 6.60059 193.835 9.56469 193.835 14.1443C193.835 17.4909 192.138 19.9558 189.388 21.0421ZM175.173 17.2263H184.533C186.113 17.2263 188.57 17.2263 188.57 14.1443C188.57 11.0623 186.112 11.0335 184.533 11.0335H175.173V17.2263Z" fill="black"/>
<path d="M201.673 27.1471H196.408V6.60059H201.673V27.1471Z" fill="black"/>
<path d="M217.732 27.4406C208.723 27.4406 204.862 24.0062 204.862 16.845V6.60059H210.127V16.845C210.127 19.7212 210.917 23.0089 217.732 23.0089C224.547 23.0089 225.337 19.6924 225.337 16.845V6.60059H230.602V16.845C230.602 23.9773 226.712 27.4406 217.732 27.4406Z" fill="black"/>
<path d="M265 27.1471H259.735V13.0581L251.223 27.1471H247.421L238.91 13.0581V27.1471H233.645V6.60059H240.752L249.322 21.0999L257.892 6.60059H265V27.1471Z" fill="black"/>
<path d="M20.859 5.66777C24.2169 4.18514 27.0484 4.06843 30.1745 5.26447L28.0501 6.26522C26.1981 5.60537 24.8121 5.84805 22.9846 6.68239C20.6843 7.73167 20.6296 8.65499 22.7401 9.71468C24.9391 10.8194 26.9797 10.8321 29.2684 9.68116C31.083 8.7694 31.5722 8.05871 30.0126 7.15734L32.1348 6.12655C35.0909 7.62536 35.0443 9.09065 31.6945 10.8391C27.774 12.8845 23.9525 12.7262 20.3582 10.8529C16.9746 9.09065 16.9467 7.39424 20.8578 5.66662L20.859 5.66777Z" fill="white"/>
</g>
<defs>
<clipPath id="clip0_333_859">
<rect width="265" height="34" fill="white"/>
</clipPath>
</defs>
</svg>
